<svg xmlns="http://www.w3.org/2000/svg" xmlns:xlink="http://www.w3.org/1999/xlink" width="500" zoomAndPan="magnify" viewBox="0 0 375 374.999991" height="500" preserveAspectRatio="xMidYMid meet" version="1.0"><defs><g/></defs><rect x="-37.5" width="450" fill="#ffffff" y="-37.499999" height="449.999989" fill-opacity="1"/><rect x="-37.5" width="450" fill="#e4e2dd" y="-37.499999" height="449.999989" fill-opacity="1"/><g fill="#000000" fill-opacity="1"><g transform="translate(97.212553, 170.860907)"><g><path d="M 28.765625 -44.1875 L 28.765625 -35.34375 L 13.28125 -35.34375 L 13.28125 -26.5625 L 27.578125 -26.5625 L 27.578125 -17.734375 L 13.28125 -17.734375 L 13.28125 0 L 3.21875 0 L 3.21875 -44.1875 Z M 28.765625 -44.1875 "/></g></g></g><g fill="#000000" fill-opacity="1"><g transform="translate(123.024073, 170.860907)"><g><path d="M 31.015625 -12.421875 L 11.09375 -12.421875 C 11.09375 -10.492188 11.71875 -9.066406 12.96875 -8.140625 C 14.21875 -7.210938 15.570312 -6.75 17.03125 -6.75 C 18.570312 -6.75 19.785156 -6.953125 20.671875 -7.359375 C 21.566406 -7.773438 22.585938 -8.585938 23.734375 -9.796875 L 30.578125 -6.375 C 27.722656 -1.59375 22.976562 0.796875 16.34375 0.796875 C 12.195312 0.796875 8.640625 -0.617188 5.671875 -3.453125 C 2.710938 -6.296875 1.234375 -9.71875 1.234375 -13.71875 C 1.234375 -17.71875 2.710938 -21.144531 5.671875 -24 C 8.640625 -26.851562 12.195312 -28.28125 16.34375 -28.28125 C 20.695312 -28.28125 24.238281 -27.019531 26.96875 -24.5 C 29.695312 -21.988281 31.0625 -18.394531 31.0625 -13.71875 C 31.0625 -13.070312 31.046875 -12.640625 31.015625 -12.421875 Z M 11.359375 -17.671875 L 21.796875 -17.671875 C 21.585938 -19.097656 21.023438 -20.195312 20.109375 -20.96875 C 19.203125 -21.738281 18.035156 -22.125 16.609375 -22.125 C 15.035156 -22.125 13.785156 -21.710938 12.859375 -20.890625 C 11.929688 -20.066406 11.429688 -18.992188 11.359375 -17.671875 Z M 11.359375 -17.671875 "/></g></g></g><g fill="#000000" fill-opacity="1"><g transform="translate(150.763524, 170.860907)"><g><path d="M 5.078125 -3.40625 C 2.515625 -6.207031 1.234375 -9.640625 1.234375 -13.703125 C 1.234375 -17.773438 2.515625 -21.222656 5.078125 -24.046875 C 7.648438 -26.867188 10.921875 -28.28125 14.890625 -28.28125 C 18.535156 -28.28125 21.535156 -27.140625 23.890625 -24.859375 L 23.890625 -27.484375 L 33.375 -27.484375 L 33.375 0 L 24 0 L 24 -3.109375 L 23.890625 -3.109375 C 21.535156 -0.503906 18.535156 0.796875 14.890625 0.796875 C 10.921875 0.796875 7.648438 -0.601562 5.078125 -3.40625 Z M 13.140625 -18.359375 C 11.910156 -17.148438 11.296875 -15.597656 11.296875 -13.703125 C 11.296875 -11.816406 11.882812 -10.273438 13.0625 -9.078125 C 14.25 -7.878906 15.804688 -7.28125 17.734375 -7.28125 C 19.585938 -7.28125 21.113281 -7.882812 22.3125 -9.09375 C 23.507812 -10.3125 24.109375 -11.851562 24.109375 -13.71875 C 24.109375 -15.601562 23.488281 -17.148438 22.25 -18.359375 C 21.019531 -19.578125 19.515625 -20.1875 17.734375 -20.1875 C 15.910156 -20.1875 14.378906 -19.578125 13.140625 -18.359375 Z M 13.140625 -18.359375 "/></g></g></g><g fill="#000000" fill-opacity="1"><g transform="translate(182.787269, 170.860907)"><g><path d="M 4.828125 -27.484375 L 4.828125 -37.703125 L 14.296875 -37.703125 L 14.296875 -27.484375 L 20.078125 -27.484375 L 20.078125 -20.25 L 14.296875 -20.25 L 14.296875 -11.515625 C 14.296875 -8.984375 15.007812 -7.71875 16.4375 -7.71875 C 16.800781 -7.71875 17.175781 -7.785156 17.5625 -7.921875 C 17.957031 -8.066406 18.265625 -8.210938 18.484375 -8.359375 L 18.796875 -8.5625 L 21.15625 -0.90625 C 19.125 0.226562 16.800781 0.796875 14.1875 0.796875 C 12.40625 0.796875 10.867188 0.484375 9.578125 -0.140625 C 8.296875 -0.765625 7.320312 -1.601562 6.65625 -2.65625 C 6 -3.707031 5.53125 -4.8125 5.25 -5.96875 C 4.96875 -7.132812 4.828125 -8.375 4.828125 -9.6875 L 4.828125 -20.25 L 0.859375 -20.25 L 0.859375 -27.484375 Z M 4.828125 -27.484375 "/></g></g></g><g fill="#000000" fill-opacity="1"><g transform="translate(199.387562, 170.860907)"><g><path d="M 12.15625 -27.484375 L 12.15625 -14.40625 C 12.15625 -11.695312 12.566406 -9.769531 13.390625 -8.625 C 14.210938 -7.476562 15.601562 -6.90625 17.5625 -6.90625 C 19.53125 -6.90625 20.925781 -7.476562 21.75 -8.625 C 22.570312 -9.769531 22.984375 -11.695312 22.984375 -14.40625 L 22.984375 -27.484375 L 32.453125 -27.484375 L 32.453125 -12.109375 C 32.453125 -7.535156 31.265625 -4.238281 28.890625 -2.21875 C 26.515625 -0.207031 22.738281 0.796875 17.5625 0.796875 C 12.382812 0.796875 8.609375 -0.207031 6.234375 -2.21875 C 3.859375 -4.238281 2.671875 -7.535156 2.671875 -12.109375 L 2.671875 -27.484375 Z M 12.15625 -27.484375 "/></g></g></g><g fill="#000000" fill-opacity="1"><g transform="translate(229.965361, 170.860907)"><g><path d="M 3.21875 0 L 3.21875 -27.484375 L 12.6875 -27.484375 L 12.6875 -23.515625 L 12.796875 -23.515625 C 12.867188 -23.660156 12.984375 -23.835938 13.140625 -24.046875 C 13.304688 -24.265625 13.65625 -24.640625 14.1875 -25.171875 C 14.726562 -25.710938 15.300781 -26.195312 15.90625 -26.625 C 16.507812 -27.050781 17.296875 -27.429688 18.265625 -27.765625 C 19.234375 -28.109375 20.210938 -28.28125 21.203125 -28.28125 C 22.242188 -28.28125 23.265625 -28.132812 24.265625 -27.84375 C 25.265625 -27.5625 25.992188 -27.28125 26.453125 -27 L 27.203125 -26.5625 L 23.25 -18.53125 C 22.070312 -19.53125 20.425781 -20.03125 18.3125 -20.03125 C 17.175781 -20.03125 16.195312 -19.78125 15.375 -19.28125 C 14.550781 -18.78125 13.96875 -18.171875 13.625 -17.453125 C 13.289062 -16.742188 13.050781 -16.140625 12.90625 -15.640625 C 12.757812 -15.140625 12.6875 -14.75 12.6875 -14.46875 L 12.6875 0 Z M 3.21875 0 "/></g></g></g><g fill="#000000" fill-opacity="1"><g transform="translate(252.081684, 170.860907)"><g><path d="M 31.015625 -12.421875 L 11.09375 -12.421875 C 11.09375 -10.492188 11.71875 -9.066406 12.96875 -8.140625 C 14.21875 -7.210938 15.570312 -6.75 17.03125 -6.75 C 18.570312 -6.75 19.785156 -6.953125 20.671875 -7.359375 C 21.566406 -7.773438 22.585938 -8.585938 23.734375 -9.796875 L 30.578125 -6.375 C 27.722656 -1.59375 22.976562 0.796875 16.34375 0.796875 C 12.195312 0.796875 8.640625 -0.617188 5.671875 -3.453125 C 2.710938 -6.296875 1.234375 -9.71875 1.234375 -13.71875 C 1.234375 -17.71875 2.710938 -21.144531 5.671875 -24 C 8.640625 -26.851562 12.195312 -28.28125 16.34375 -28.28125 C 20.695312 -28.28125 24.238281 -27.019531 26.96875 -24.5 C 29.695312 -21.988281 31.0625 -18.394531 31.0625 -13.71875 C 31.0625 -13.070312 31.046875 -12.640625 31.015625 -12.421875 Z M 11.359375 -17.671875 L 21.796875 -17.671875 C 21.585938 -19.097656 21.023438 -20.195312 20.109375 -20.96875 C 19.203125 -21.738281 18.035156 -22.125 16.609375 -22.125 C 15.035156 -22.125 13.785156 -21.710938 12.859375 -20.890625 C 11.929688 -20.066406 11.429688 -18.992188 11.359375 -17.671875 Z M 11.359375 -17.671875 "/></g></g></g><g fill="#000000" fill-opacity="1"><g transform="translate(108.722469, 245.387308)"><g><path d="M 28.5 -44.1875 L 28.5 -35.34375 L 13.28125 -35.34375 L 13.28125 -26.5625 L 27.859375 -26.5625 L 27.859375 -17.734375 L 13.28125 -17.734375 L 13.28125 -8.84375 L 28.5 -8.84375 L 28.5 0 L 3.21875 0 L 3.21875 -44.1875 Z M 28.5 -44.1875 "/></g></g></g><g fill="#000000" fill-opacity="1"><g transform="translate(135.230184, 245.387308)"><g><path d="M 3.21875 0 L 3.21875 -27.484375 L 12.6875 -27.484375 L 12.6875 -24.578125 L 12.796875 -24.578125 C 15.265625 -27.046875 17.890625 -28.28125 20.671875 -28.28125 C 22.023438 -28.28125 23.375 -28.097656 24.71875 -27.734375 C 26.0625 -27.378906 27.347656 -26.828125 28.578125 -26.078125 C 29.804688 -25.328125 30.804688 -24.265625 31.578125 -22.890625 C 32.347656 -21.515625 32.734375 -19.921875 32.734375 -18.109375 L 32.734375 0 L 23.25 0 L 23.25 -15.53125 C 23.25 -16.957031 22.789062 -18.207031 21.875 -19.28125 C 20.96875 -20.351562 19.78125 -20.890625 18.3125 -20.890625 C 16.882812 -20.890625 15.585938 -20.332031 14.421875 -19.21875 C 13.265625 -18.113281 12.6875 -16.882812 12.6875 -15.53125 L 12.6875 0 Z M 3.21875 0 "/></g></g></g><g fill="#000000" fill-opacity="1"><g transform="translate(166.075748, 245.387308)"><g><path d="M 1.984375 6.75 L 9.75 2.953125 C 11.175781 5.304688 13.65625 6.484375 17.1875 6.484375 C 18.832031 6.484375 20.359375 5.957031 21.765625 4.90625 C 23.179688 3.851562 23.890625 2.234375 23.890625 0.046875 L 23.890625 -1.984375 C 22.210938 -0.128906 19.210938 0.796875 14.890625 0.796875 C 10.921875 0.796875 7.648438 -0.601562 5.078125 -3.40625 C 2.515625 -6.207031 1.234375 -9.640625 1.234375 -13.703125 C 1.234375 -17.773438 2.515625 -21.222656 5.078125 -24.046875 C 7.648438 -26.867188 10.921875 -28.28125 14.890625 -28.28125 C 18.421875 -28.28125 21.367188 -27.191406 23.734375 -25.015625 L 23.890625 -25.015625 L 23.890625 -27.484375 L 33.375 -27.484375 L 33.375 0.75 C 33.375 5.207031 31.890625 8.648438 28.921875 11.078125 C 25.960938 13.515625 22.050781 14.734375 17.1875 14.734375 C 9.332031 14.734375 4.265625 12.070312 1.984375 6.75 Z M 13.140625 -18.359375 C 11.910156 -17.148438 11.296875 -15.597656 11.296875 -13.703125 C 11.296875 -11.816406 11.882812 -10.273438 13.0625 -9.078125 C 14.25 -7.878906 15.804688 -7.28125 17.734375 -7.28125 C 19.585938 -7.28125 21.113281 -7.882812 22.3125 -9.09375 C 23.507812 -10.3125 24.109375 -11.851562 24.109375 -13.71875 C 24.109375 -15.601562 23.488281 -17.148438 22.25 -18.359375 C 21.019531 -19.578125 19.515625 -20.1875 17.734375 -20.1875 C 15.910156 -20.1875 14.378906 -19.578125 13.140625 -18.359375 Z M 13.140625 -18.359375 "/></g></g></g><g fill="#000000" fill-opacity="1"><g transform="translate(198.099493, 245.387308)"><g><path d="M 4.125 -42.796875 C 5.226562 -43.898438 6.546875 -44.453125 8.078125 -44.453125 C 9.617188 -44.453125 10.941406 -43.898438 12.046875 -42.796875 C 13.160156 -41.691406 13.71875 -40.367188 13.71875 -38.828125 C 13.71875 -37.296875 13.160156 -35.972656 12.046875 -34.859375 C 10.941406 -33.753906 9.617188 -33.203125 8.078125 -33.203125 C 6.546875 -33.203125 5.226562 -33.753906 4.125 -34.859375 C 3.019531 -35.972656 2.46875 -37.296875 2.46875 -38.828125 C 2.46875 -40.367188 3.019531 -41.691406 4.125 -42.796875 Z M 3.21875 -27.484375 L 3.21875 0 L 12.6875 0 L 12.6875 -27.484375 Z M 3.21875 -27.484375 "/></g></g></g><g fill="#000000" fill-opacity="1"><g transform="translate(209.719309, 245.387308)"><g><path d="M 3.21875 0 L 3.21875 -27.484375 L 12.6875 -27.484375 L 12.6875 -24.578125 L 12.796875 -24.578125 C 15.265625 -27.046875 17.890625 -28.28125 20.671875 -28.28125 C 22.023438 -28.28125 23.375 -28.097656 24.71875 -27.734375 C 26.0625 -27.378906 27.347656 -26.828125 28.578125 -26.078125 C 29.804688 -25.328125 30.804688 -24.265625 31.578125 -22.890625 C 32.347656 -21.515625 32.734375 -19.921875 32.734375 -18.109375 L 32.734375 0 L 23.25 0 L 23.25 -15.53125 C 23.25 -16.957031 22.789062 -18.207031 21.875 -19.28125 C 20.96875 -20.351562 19.78125 -20.890625 18.3125 -20.890625 C 16.882812 -20.890625 15.585938 -20.332031 14.421875 -19.21875 C 13.265625 -18.113281 12.6875 -16.882812 12.6875 -15.53125 L 12.6875 0 Z M 3.21875 0 "/></g></g></g><g fill="#000000" fill-opacity="1"><g transform="translate(240.564873, 245.387308)"><g><path d="M 31.015625 -12.421875 L 11.09375 -12.421875 C 11.09375 -10.492188 11.71875 -9.066406 12.96875 -8.140625 C 14.21875 -7.210938 15.570312 -6.75 17.03125 -6.75 C 18.570312 -6.75 19.785156 -6.953125 20.671875 -7.359375 C 21.566406 -7.773438 22.585938 -8.585938 23.734375 -9.796875 L 30.578125 -6.375 C 27.722656 -1.59375 22.976562 0.796875 16.34375 0.796875 C 12.195312 0.796875 8.640625 -0.617188 5.671875 -3.453125 C 2.710938 -6.296875 1.234375 -9.71875 1.234375 -13.71875 C 1.234375 -17.71875 2.710938 -21.144531 5.671875 -24 C 8.640625 -26.851562 12.195312 -28.28125 16.34375 -28.28125 C 20.695312 -28.28125 24.238281 -27.019531 26.96875 -24.5 C 29.695312 -21.988281 31.0625 -18.394531 31.0625 -13.71875 C 31.0625 -13.070312 31.046875 -12.640625 31.015625 -12.421875 Z M 11.359375 -17.671875 L 21.796875 -17.671875 C 21.585938 -19.097656 21.023438 -20.195312 20.109375 -20.96875 C 19.203125 -21.738281 18.035156 -22.125 16.609375 -22.125 C 15.035156 -22.125 13.785156 -21.710938 12.859375 -20.890625 C 11.929688 -20.066406 11.429688 -18.992188 11.359375 -17.671875 Z M 11.359375 -17.671875 "/></g></g></g><path stroke-linecap="butt" transform="matrix(1.050628, 0, 0, 1.050628, 69.41825, 272.894982)" fill="none" stroke-linejoin="miter" d="M -0.000268022 5.0003 L 84.432121 5.0003 " stroke="#292929" stroke-width="10" stroke-opacity="1" stroke-miterlimit="4"/><path stroke-linecap="butt" transform="matrix(0, 1.050628, -1.050628, 0, 79.919142, 193.616442)" fill="none" stroke-linejoin="miter" d="M 0.000709113 5.001847 L 82.462551 5.001847 " stroke="#292929" stroke-width="10" stroke-opacity="1" stroke-miterlimit="4"/><path stroke-linecap="butt" transform="matrix(-0.972481, 0, 0, -0.972481, 305.573684, 101.321367)" fill="none" stroke-linejoin="miter" d="M -0.000549436 5.001985 L 84.432337 5.001985 " stroke="#292929" stroke-width="10" stroke-opacity="1" stroke-miterlimit="4"/><path stroke-linecap="butt" transform="matrix(0, -0.972481, 0.972481, 0, 295.853863, 174.703085)" fill="none" stroke-linejoin="miter" d="M -0.0000407948 4.998536 L 82.464619 4.998536 " stroke="#292929" stroke-width="10" stroke-opacity="1" stroke-miterlimit="4"/></svg>